<svg width="24" height="25" viewBox="0 0 24 25" fill="none" xmlns="http://www.w3.org/2000/svg">
<path d="M13.0305 1.69132L2.04 0.0218182C1.53 -0.0576818 1.0095 0.0818185 0.6195 0.411819C0.2295 0.752319 0 1.24132 0 1.75132V22.8218C0 23.3723 0.45 23.8223 1.0005 23.8223H4.251V18.5723C4.251 17.6018 5.031 16.8218 6.0015 16.8218H8.502C9.4725 16.8218 10.2525 17.6018 10.2525 18.5723V23.8223H14.502V3.42232C14.5005 2.56132 13.8795 1.83232 13.0305 1.69132ZM5.5005 13.0718L4.0005 14.5718C3.5865 14.5718 3.2505 14.2358 3.2505 13.8218C3.2505 13.4078 3.5865 13.0718 4.0005 13.0718H5.5005C5.9145 13.0718 6.2505 13.4078 6.2505 13.8218C6.2505 14.2358 5.9145 13.0718 5.5005 13.0718ZM5.5005 11.5718H4.0005C3.5865 11.5718 3.2505 11.2358 3.2505 10.8218C3.2505 10.4078 3.5865 10.0718 4.0005 10.0718H5.5005C5.9145 10.0718 6.2505 10.4078 6.2505 10.8218C6.2505 11.2358 5.9145 11.5718 5.5005 11.5718ZM5.5005 8.57182H4.0005C3.5865 8.57182 3.2505 8.23582 3.2505 7.82182C3.2505 7.40782 3.5865 7.07182 4.0005 7.07182H5.5005C5.9145 7.07182 6.2505 7.40782 6.2505 7.82182C6.2505 8.23582 5.9145 8.57182 5.5005 8.57182ZM5.5005 5.57182H4.0005C3.5865 5.57182 3.2505 5.23582 3.2505 4.82182C3.2505 4.40782 3.5865 4.07182 4.0005 4.07182H5.5005C5.9145 4.07182 6.2505 4.40782 6.2505 4.82182C6.2505 5.23582 5.9145 5.57182 5.5005 5.57182ZM10.5 14.5718H9C8.586 14.5718 8.25 14.2358 8.25 13.8218C8.25 13.4078 8.586 13.0718 9 13.0718H10.5C10.914 13.0718 11.25 13.4078 11.25 13.8218C11.25 14.2358 10.914 14.5718 10.5 14.5718ZM10.5 11.5718H9C8.586 11.5718 8.25 11.2358 8.25 10.8218C8.25 10.4078 8.586 10.0718 9 10.0718H10.5C10.914 10.0718 11.25 10.4078 11.25 10.8218C11.25 11.2358 10.914 11.5718 10.5 11.5718ZM10.5 8.57182H9C8.586 8.57182 8.25 8.23582 8.25 7.82182C8.25 7.40782 8.586 7.07182 9 7.07182H10.5C10.914 7.07182 11.25 7.40782 11.25 7.82182C11.25 8.23582 10.914 8.57182 10.5 8.57182ZM10.5 5.57182H9C8.586 5.57182 8.25 5.23582 8.25 4.82182C8.25 4.40782 8.586 4.07182 9 4.07182H10.5C10.914 4.07182 11.25 4.40782 11.25 4.82182C11.25 5.23582 10.914 5.57182 10.5 5.57182Z" fill="#232536"/>
<path d="M22.6205 10.887L15.5 9.396V24.045H22.25C23.2145 24.045 24.0005 23.2605 24.0005 22.2945V12.597C24.0005 11.7705 23.4365 11.067 22.6205 10.887ZM20.2505 21.045H18.7505C18.3365 21.045 18.0005 20.709 18.0005 20.295C18.0005 19.881 18.3365 19.545 18.7505 19.545H20.2505C20.6645 19.545 21.0005 19.881 21.0005 20.295C21.0005 20.709 20.6645 21.045 20.2505 21.045ZM20.2505 18.045H18.7505C18.3365 18.045 18.0005 17.709 18.0005 17.295C18.0005 16.881 18.3365 16.545 18.7505 16.545H20.2505C20.6645 16.545 21.0005 16.881 21.0005 17.295C21.0005 17.709 20.6645 18.045 20.2505 18.045ZM20.2505 15.045H18.7505C18.3365 15.045 18.0005 14.709 18.0005 14.295C18.0005 13.881 18.3365 13.545 18.7505 13.545H20.2505C20.6645 13.545 21.0005 13.881 21.0005 14.295C21.0005 14.709 20.6645 15.045 20.2505 15.045Z" fill="#FFD050"/>
</svg>
